<svg width="80" height="80" viewBox="0 0 80 80" fill="none" xmlns="http://www.w3.org/2000/svg">
<path d="M60.3331 43.6664H43.6664V60.333C43.6664 62.1664 42.1664 63.6664 40.3331 63.6664C38.4998 63.6664 36.9998 62.1664 36.9998 60.333V43.6664H20.3331C18.4998 43.6664 16.9998 42.1664 16.9998 40.333C16.9998 38.4997 18.4998 36.9997 20.3331 36.9997H36.9998V20.333C36.9998 18.4997 38.4998 16.9997 40.3331 16.9997C42.1664 16.9997 43.6664 18.4997 43.6664 20.333V36.9997H60.3331C62.1664 36.9997 63.6664 38.4997 63.6664 40.333C63.6664 42.1664 62.1664 43.6664 60.3331 43.6664Z" fill="#FE8CDE"/>
</svg>
